<?xml version="1.0" encoding="UTF-8" standalone="no"?>
<!DOCTYPE svg PUBLIC "-//W3C//DTD SVG 1.1//EN"
 "http://www.w3.org/Graphics/SVG/1.1/DTD/svg11.dtd">
<!-- Generated by graphviz version 2.32.0 (20130912.2142)
 -->
<!-- Title: controllers_diagram Pages: 1 -->
<svg width="1168pt" height="1137pt"
 viewBox="0.00 0.00 1168.00 1136.63" xmlns="http://www.w3.org/2000/svg" xmlns:xlink="http://www.w3.org/1999/xlink">
<g id="graph1" class="graph" transform="scale(1 1) rotate(0) translate(4 1132.63)">
<title>controllers_diagram</title>
<polygon fill="white" stroke="white" points="-4,5 -4,-1132.63 1165,-1132.63 1165,5 -4,5"/>
<!-- _diagram_info -->
<g id="node1" class="node"><title>_diagram_info</title>
<text text-anchor="start" x="954" y="-1095.6" font-family="Times,serif" font-size="13.00">Controllers diagram</text>
<text text-anchor="start" x="954" y="-1081.6" font-family="Times,serif" font-size="13.00">Date: Sep 27 2013 &#45; 18:44</text>
<text text-anchor="start" x="954" y="-1067.6" font-family="Times,serif" font-size="13.00">Migration version: 20130722114758</text>
<text text-anchor="start" x="954" y="-1053.6" font-family="Times,serif" font-size="13.00">Generated by RailRoady 1.1.1</text>
<text text-anchor="start" x="954" y="-1039.6" font-family="Times,serif" font-size="13.00">http://railroady.prestonlee.com</text>
</g>
<!-- ReportsController -->
<g id="node2" class="node"><title>ReportsController</title>
<path fill="none" stroke="black" d="M12,-517.617C12,-517.617 102,-517.617 102,-517.617 108,-517.617 114,-523.617 114,-529.617 114,-529.617 114,-718.617 114,-718.617 114,-724.617 108,-730.617 102,-730.617 102,-730.617 12,-730.617 12,-730.617 6,-730.617 -1.13687e-13,-724.617 -1.13687e-13,-718.617 -1.13687e-13,-718.617 -1.13687e-13,-529.617 -1.13687e-13,-529.617 -1.13687e-13,-523.617 6,-517.617 12,-517.617"/>
<text text-anchor="middle" x="57" y="-715.417" font-family="Times,serif" font-size="14.00">ReportsController</text>
<polyline fill="none" stroke="black" points="-1.13687e-13,-707.617 114,-707.617 "/>
<text text-anchor="start" x="8" y="-692.417" font-family="Times,serif" font-size="14.00">create</text>
<text text-anchor="start" x="8" y="-677.417" font-family="Times,serif" font-size="14.00">destroy</text>
<text text-anchor="start" x="8" y="-662.417" font-family="Times,serif" font-size="14.00">edit</text>
<text text-anchor="start" x="8" y="-647.417" font-family="Times,serif" font-size="14.00">index</text>
<text text-anchor="start" x="8" y="-632.417" font-family="Times,serif" font-size="14.00">new</text>
<text text-anchor="start" x="8" y="-617.417" font-family="Times,serif" font-size="14.00">show</text>
<text text-anchor="start" x="8" y="-602.417" font-family="Times,serif" font-size="14.00">tag</text>
<text text-anchor="start" x="8" y="-587.417" font-family="Times,serif" font-size="14.00">untag</text>
<text text-anchor="start" x="8" y="-572.417" font-family="Times,serif" font-size="14.00">update</text>
<polyline fill="none" stroke="black" points="-1.13687e-13,-564.617 114,-564.617 "/>
<polyline fill="none" stroke="black" points="-1.13687e-13,-540.617 114,-540.617 "/>
<text text-anchor="start" x="8" y="-525.417" font-family="Times,serif" font-size="14.00">_layout</text>
</g>
<!-- CurrentAlertsController -->
<g id="node3" class="node"><title>CurrentAlertsController</title>
<path fill="none" stroke="black" d="M874.696,-769.88C874.696,-769.88 996.696,-769.88 996.696,-769.88 1002.7,-769.88 1008.7,-775.88 1008.7,-781.88 1008.7,-781.88 1008.7,-880.88 1008.7,-880.88 1008.7,-886.88 1002.7,-892.88 996.696,-892.88 996.696,-892.88 874.696,-892.88 874.696,-892.88 868.696,-892.88 862.696,-886.88 862.696,-880.88 862.696,-880.88 862.696,-781.88 862.696,-781.88 862.696,-775.88 868.696,-769.88 874.696,-769.88"/>
<text text-anchor="middle" x="935.696" y="-877.68" font-family="Times,serif" font-size="14.00">CurrentAlertsController</text>
<polyline fill="none" stroke="black" points="862.696,-869.88 1008.7,-869.88 "/>
<text text-anchor="start" x="870.696" y="-854.68" font-family="Times,serif" font-size="14.00">delete_3h</text>
<text text-anchor="start" x="870.696" y="-839.68" font-family="Times,serif" font-size="14.00">destroy</text>
<text text-anchor="start" x="870.696" y="-824.68" font-family="Times,serif" font-size="14.00">index</text>
<polyline fill="none" stroke="black" points="862.696,-816.88 1008.7,-816.88 "/>
<polyline fill="none" stroke="black" points="862.696,-792.88 1008.7,-792.88 "/>
<text text-anchor="start" x="870.696" y="-777.68" font-family="Times,serif" font-size="14.00">_layout</text>
</g>
<!-- DispoStatsController -->
<g id="node4" class="node"><title>DispoStatsController</title>
<path fill="none" stroke="black" d="M438.158,-0.5C438.158,-0.5 545.158,-0.5 545.158,-0.5 551.158,-0.5 557.158,-6.5 557.158,-12.5 557.158,-12.5 557.158,-81.5 557.158,-81.5 557.158,-87.5 551.158,-93.5 545.158,-93.5 545.158,-93.5 438.158,-93.5 438.158,-93.5 432.158,-93.5 426.158,-87.5 426.158,-81.5 426.158,-81.5 426.158,-12.5 426.158,-12.5 426.158,-6.5 432.158,-0.5 438.158,-0.5"/>
<text text-anchor="middle" x="491.658" y="-78.3" font-family="Times,serif" font-size="14.00">DispoStatsController</text>
<polyline fill="none" stroke="black" points="426.158,-70.5 557.158,-70.5 "/>
<text text-anchor="start" x="434.158" y="-55.3" font-family="Times,serif" font-size="14.00">index</text>
<polyline fill="none" stroke="black" points="426.158,-47.5 557.158,-47.5 "/>
<polyline fill="none" stroke="black" points="426.158,-23.5 557.158,-23.5 "/>
<text text-anchor="start" x="434.158" y="-8.3" font-family="Times,serif" font-size="14.00">_layout</text>
</g>
<!-- AlertsController -->
<g id="node5" class="node"><title>AlertsController</title>
<path fill="none" stroke="black" d="M395.921,-900.126C395.921,-900.126 476.921,-900.126 476.921,-900.126 482.921,-900.126 488.921,-906.126 488.921,-912.126 488.921,-912.126 488.921,-1116.13 488.921,-1116.13 488.921,-1122.13 482.921,-1128.13 476.921,-1128.13 476.921,-1128.13 395.921,-1128.13 395.921,-1128.13 389.921,-1128.13 383.921,-1122.13 383.921,-1116.13 383.921,-1116.13 383.921,-912.126 383.921,-912.126 383.921,-906.126 389.921,-900.126 395.921,-900.126"/>
<text text-anchor="middle" x="436.421" y="-1112.93" font-family="Times,serif" font-size="14.00">AlertsController</text>
<polyline fill="none" stroke="black" points="383.921,-1105.13 488.921,-1105.13 "/>
<text text-anchor="start" x="391.921" y="-1089.93" font-family="Times,serif" font-size="14.00">create</text>
<text text-anchor="start" x="391.921" y="-1074.93" font-family="Times,serif" font-size="14.00">destroy</text>
<text text-anchor="start" x="391.921" y="-1059.93" font-family="Times,serif" font-size="14.00">edit</text>
<text text-anchor="start" x="391.921" y="-1044.93" font-family="Times,serif" font-size="14.00">index</text>
<text text-anchor="start" x="391.921" y="-1029.93" font-family="Times,serif" font-size="14.00">link_to_report</text>
<text text-anchor="start" x="391.921" y="-1014.93" font-family="Times,serif" font-size="14.00">new</text>
<text text-anchor="start" x="391.921" y="-999.926" font-family="Times,serif" font-size="14.00">show</text>
<text text-anchor="start" x="391.921" y="-984.926" font-family="Times,serif" font-size="14.00">update</text>
<polyline fill="none" stroke="black" points="383.921,-977.126 488.921,-977.126 "/>
<polyline fill="none" stroke="black" points="383.921,-953.126 488.921,-953.126 "/>
<text text-anchor="start" x="391.921" y="-937.926" font-family="Times,serif" font-size="14.00">_layout</text>
<text text-anchor="start" x="391.921" y="-922.926" font-family="Times,serif" font-size="14.00">find_filter</text>
<text text-anchor="start" x="391.921" y="-907.926" font-family="Times,serif" font-size="14.00">get_parent</text>
</g>
<!-- ApplicationController -->
<g id="node6" class="node"><title>ApplicationController</title>
<path fill="none" stroke="black" d="M495.74,-487.668C495.74,-487.668 607.74,-487.668 607.74,-487.668 613.74,-487.668 619.74,-493.668 619.74,-499.668 619.74,-499.668 619.74,-584.668 619.74,-584.668 619.74,-590.668 613.74,-596.668 607.74,-596.668 607.74,-596.668 495.74,-596.668 495.74,-596.668 489.74,-596.668 483.74,-590.668 483.74,-584.668 483.74,-584.668 483.74,-499.668 483.74,-499.668 483.74,-493.668 489.74,-487.668 495.74,-487.668"/>
<text text-anchor="middle" x="551.74" y="-581.468" font-family="Times,serif" font-size="14.00">ApplicationController</text>
<polyline fill="none" stroke="black" points="483.74,-573.668 619.74,-573.668 "/>
<polyline fill="none" stroke="black" points="483.74,-549.668 619.74,-549.668 "/>
<polyline fill="none" stroke="black" points="483.74,-525.668 619.74,-525.668 "/>
<text text-anchor="start" x="491.74" y="-510.468" font-family="Times,serif" font-size="14.00">_layout</text>
<text text-anchor="start" x="491.74" y="-495.468" font-family="Times,serif" font-size="14.00">authorize</text>
</g>
<!-- ApplicationController&#45;&gt;ReportsController -->
<g id="edge2" class="edge"><title>ApplicationController&#45;&gt;ReportsController</title>
<path fill="none" stroke="black" d="M483.727,-553.434C385.596,-569.688 206.033,-599.431 114.278,-614.63"/>
</g>
<!-- ApplicationController&#45;&gt;CurrentAlertsController -->
<g id="edge4" class="edge"><title>ApplicationController&#45;&gt;CurrentAlertsController</title>
<path fill="none" stroke="black" d="M619.941,-593.54C688.145,-644.914 792.685,-723.658 862.575,-776.302"/>
</g>
<!-- ApplicationController&#45;&gt;DispoStatsController -->
<g id="edge6" class="edge"><title>ApplicationController&#45;&gt;DispoStatsController</title>
<path fill="none" stroke="black" d="M545.081,-487.284C533.18,-389.207 508.469,-185.548 497.325,-93.7078"/>
</g>
<!-- ApplicationController&#45;&gt;AlertsController -->
<g id="edge8" class="edge"><title>ApplicationController&#45;&gt;AlertsController</title>
<path fill="none" stroke="black" d="M538.399,-596.769C520.375,-670.533 487.803,-803.837 464.313,-899.973"/>
</g>
<!-- HostsController -->
<g id="node7" class="node"><title>HostsController</title>
<path fill="none" stroke="black" d="M669.438,-879.629C669.438,-879.629 748.438,-879.629 748.438,-879.629 754.438,-879.629 760.438,-885.629 760.438,-891.629 760.438,-891.629 760.438,-1080.63 760.438,-1080.63 760.438,-1086.63 754.438,-1092.63 748.438,-1092.63 748.438,-1092.63 669.438,-1092.63 669.438,-1092.63 663.438,-1092.63 657.438,-1086.63 657.438,-1080.63 657.438,-1080.63 657.438,-891.629 657.438,-891.629 657.438,-885.629 663.438,-879.629 669.438,-879.629"/>
<text text-anchor="middle" x="708.938" y="-1077.43" font-family="Times,serif" font-size="14.00">HostsController</text>
<polyline fill="none" stroke="black" points="657.438,-1069.63 760.438,-1069.63 "/>
<text text-anchor="start" x="665.438" y="-1054.43" font-family="Times,serif" font-size="14.00">create</text>
<text text-anchor="start" x="665.438" y="-1039.43" font-family="Times,serif" font-size="14.00">destroy</text>
<text text-anchor="start" x="665.438" y="-1024.43" font-family="Times,serif" font-size="14.00">edit</text>
<text text-anchor="start" x="665.438" y="-1009.43" font-family="Times,serif" font-size="14.00">index</text>
<text text-anchor="start" x="665.438" y="-994.429" font-family="Times,serif" font-size="14.00">new</text>
<text text-anchor="start" x="665.438" y="-979.429" font-family="Times,serif" font-size="14.00">show</text>
<text text-anchor="start" x="665.438" y="-964.429" font-family="Times,serif" font-size="14.00">tag</text>
<text text-anchor="start" x="665.438" y="-949.429" font-family="Times,serif" font-size="14.00">untag</text>
<text text-anchor="start" x="665.438" y="-934.429" font-family="Times,serif" font-size="14.00">update</text>
<polyline fill="none" stroke="black" points="657.438,-926.629 760.438,-926.629 "/>
<polyline fill="none" stroke="black" points="657.438,-902.629 760.438,-902.629 "/>
<text text-anchor="start" x="665.438" y="-887.429" font-family="Times,serif" font-size="14.00">_layout</text>
</g>
<!-- ApplicationController&#45;&gt;HostsController -->
<g id="edge10" class="edge"><title>ApplicationController&#45;&gt;HostsController</title>
<path fill="none" stroke="black" d="M571.173,-597.052C596.022,-667.231 639.598,-790.298 671.098,-879.262"/>
</g>
<!-- ReporttagsController -->
<g id="node8" class="node"><title>ReporttagsController</title>
<path fill="none" stroke="black" d="M71.2361,-114.948C71.2361,-114.948 178.236,-114.948 178.236,-114.948 184.236,-114.948 190.236,-120.948 190.236,-126.948 190.236,-126.948 190.236,-285.948 190.236,-285.948 190.236,-291.948 184.236,-297.948 178.236,-297.948 178.236,-297.948 71.2361,-297.948 71.2361,-297.948 65.2361,-297.948 59.2361,-291.948 59.2361,-285.948 59.2361,-285.948 59.2361,-126.948 59.2361,-126.948 59.2361,-120.948 65.2361,-114.948 71.2361,-114.948"/>
<text text-anchor="middle" x="124.736" y="-282.748" font-family="Times,serif" font-size="14.00">ReporttagsController</text>
<polyline fill="none" stroke="black" points="59.2361,-274.948 190.236,-274.948 "/>
<text text-anchor="start" x="67.2361" y="-259.748" font-family="Times,serif" font-size="14.00">create</text>
<text text-anchor="start" x="67.2361" y="-244.748" font-family="Times,serif" font-size="14.00">destroy</text>
<text text-anchor="start" x="67.2361" y="-229.748" font-family="Times,serif" font-size="14.00">edit</text>
<text text-anchor="start" x="67.2361" y="-214.748" font-family="Times,serif" font-size="14.00">index</text>
<text text-anchor="start" x="67.2361" y="-199.748" font-family="Times,serif" font-size="14.00">new</text>
<text text-anchor="start" x="67.2361" y="-184.748" font-family="Times,serif" font-size="14.00">show</text>
<text text-anchor="start" x="67.2361" y="-169.748" font-family="Times,serif" font-size="14.00">update</text>
<polyline fill="none" stroke="black" points="59.2361,-161.948 190.236,-161.948 "/>
<polyline fill="none" stroke="black" points="59.2361,-137.948 190.236,-137.948 "/>
<text text-anchor="start" x="67.2361" y="-122.748" font-family="Times,serif" font-size="14.00">_layout</text>
</g>
<!-- ApplicationController&#45;&gt;ReporttagsController -->
<g id="edge12" class="edge"><title>ApplicationController&#45;&gt;ReporttagsController</title>
<path fill="none" stroke="black" d="M524.649,-487.467C488.049,-419.6 416.203,-305.615 320.436,-246.35 281.515,-222.265 230.701,-212.408 190.606,-208.511"/>
</g>
<!-- LoginController -->
<g id="node9" class="node"><title>LoginController</title>
<path fill="none" stroke="black" d="M986.565,-484.759C986.565,-484.759 1066.57,-484.759 1066.57,-484.759 1072.57,-484.759 1078.57,-490.759 1078.57,-496.759 1078.57,-496.759 1078.57,-640.759 1078.57,-640.759 1078.57,-646.759 1072.57,-652.759 1066.57,-652.759 1066.57,-652.759 986.565,-652.759 986.565,-652.759 980.565,-652.759 974.565,-646.759 974.565,-640.759 974.565,-640.759 974.565,-496.759 974.565,-496.759 974.565,-490.759 980.565,-484.759 986.565,-484.759"/>
<text text-anchor="middle" x="1026.57" y="-637.559" font-family="Times,serif" font-size="14.00">LoginController</text>
<polyline fill="none" stroke="black" points="974.565,-629.759 1078.57,-629.759 "/>
<text text-anchor="start" x="982.565" y="-614.559" font-family="Times,serif" font-size="14.00">add_user</text>
<text text-anchor="start" x="982.565" y="-599.559" font-family="Times,serif" font-size="14.00">delete_user</text>
<text text-anchor="start" x="982.565" y="-584.559" font-family="Times,serif" font-size="14.00">index</text>
<text text-anchor="start" x="982.565" y="-569.559" font-family="Times,serif" font-size="14.00">list_users</text>
<text text-anchor="start" x="982.565" y="-554.559" font-family="Times,serif" font-size="14.00">login</text>
<text text-anchor="start" x="982.565" y="-539.559" font-family="Times,serif" font-size="14.00">logout</text>
<polyline fill="none" stroke="black" points="974.565,-531.759 1078.57,-531.759 "/>
<polyline fill="none" stroke="black" points="974.565,-507.759 1078.57,-507.759 "/>
<text text-anchor="start" x="982.565" y="-492.559" font-family="Times,serif" font-size="14.00">_layout</text>
</g>
<!-- ApplicationController&#45;&gt;LoginController -->
<g id="edge14" class="edge"><title>ApplicationController&#45;&gt;LoginController</title>
<path fill="none" stroke="black" d="M619.771,-545.978C715.549,-551.342 888.067,-561.003 974.394,-565.838"/>
</g>
<!-- HosttagsController -->
<g id="node10" class="node"><title>HosttagsController</title>
<path fill="none" stroke="black" d="M210.236,-249.55C210.236,-249.55 305.236,-249.55 305.236,-249.55 311.236,-249.55 317.236,-255.55 317.236,-261.55 317.236,-261.55 317.236,-420.55 317.236,-420.55 317.236,-426.55 311.236,-432.55 305.236,-432.55 305.236,-432.55 210.236,-432.55 210.236,-432.55 204.236,-432.55 198.236,-426.55 198.236,-420.55 198.236,-420.55 198.236,-261.55 198.236,-261.55 198.236,-255.55 204.236,-249.55 210.236,-249.55"/>
<text text-anchor="middle" x="257.736" y="-417.35" font-family="Times,serif" font-size="14.00">HosttagsController</text>
<polyline fill="none" stroke="black" points="198.236,-409.55 317.236,-409.55 "/>
<text text-anchor="start" x="206.236" y="-394.35" font-family="Times,serif" font-size="14.00">create</text>
<text text-anchor="start" x="206.236" y="-379.35" font-family="Times,serif" font-size="14.00">destroy</text>
<text text-anchor="start" x="206.236" y="-364.35" font-family="Times,serif" font-size="14.00">edit</text>
<text text-anchor="start" x="206.236" y="-349.35" font-family="Times,serif" font-size="14.00">index</text>
<text text-anchor="start" x="206.236" y="-334.35" font-family="Times,serif" font-size="14.00">new</text>
<text text-anchor="start" x="206.236" y="-319.35" font-family="Times,serif" font-size="14.00">show</text>
<text text-anchor="start" x="206.236" y="-304.35" font-family="Times,serif" font-size="14.00">update</text>
<polyline fill="none" stroke="black" points="198.236,-296.55 317.236,-296.55 "/>
<polyline fill="none" stroke="black" points="198.236,-272.55 317.236,-272.55 "/>
<text text-anchor="start" x="206.236" y="-257.35" font-family="Times,serif" font-size="14.00">_layout</text>
</g>
<!-- ApplicationController&#45;&gt;HosttagsController -->
<g id="edge16" class="edge"><title>ApplicationController&#45;&gt;HosttagsController</title>
<path fill="none" stroke="black" d="M483.551,-495.522C433.34,-461.174 365.711,-414.912 317.587,-381.992"/>
</g>
<!-- ServicesController -->
<g id="node11" class="node"><title>ServicesController</title>
<path fill="none" stroke="black" d="M921.243,-192.382C921.243,-192.382 1015.24,-192.382 1015.24,-192.382 1021.24,-192.382 1027.24,-198.382 1027.24,-204.382 1027.24,-204.382 1027.24,-393.382 1027.24,-393.382 1027.24,-399.382 1021.24,-405.382 1015.24,-405.382 1015.24,-405.382 921.243,-405.382 921.243,-405.382 915.243,-405.382 909.243,-399.382 909.243,-393.382 909.243,-393.382 909.243,-204.382 909.243,-204.382 909.243,-198.382 915.243,-192.382 921.243,-192.382"/>
<text text-anchor="middle" x="968.243" y="-390.182" font-family="Times,serif" font-size="14.00">ServicesController</text>
<polyline fill="none" stroke="black" points="909.243,-382.382 1027.24,-382.382 "/>
<text text-anchor="start" x="917.243" y="-367.182" font-family="Times,serif" font-size="14.00">create</text>
<text text-anchor="start" x="917.243" y="-352.182" font-family="Times,serif" font-size="14.00">destroy</text>
<text text-anchor="start" x="917.243" y="-337.182" font-family="Times,serif" font-size="14.00">edit</text>
<text text-anchor="start" x="917.243" y="-322.182" font-family="Times,serif" font-size="14.00">index</text>
<text text-anchor="start" x="917.243" y="-307.182" font-family="Times,serif" font-size="14.00">new</text>
<text text-anchor="start" x="917.243" y="-292.182" font-family="Times,serif" font-size="14.00">show</text>
<text text-anchor="start" x="917.243" y="-277.182" font-family="Times,serif" font-size="14.00">tag</text>
<text text-anchor="start" x="917.243" y="-262.182" font-family="Times,serif" font-size="14.00">untag</text>
<text text-anchor="start" x="917.243" y="-247.182" font-family="Times,serif" font-size="14.00">update</text>
<polyline fill="none" stroke="black" points="909.243,-239.382 1027.24,-239.382 "/>
<polyline fill="none" stroke="black" points="909.243,-215.382 1027.24,-215.382 "/>
<text text-anchor="start" x="917.243" y="-200.182" font-family="Times,serif" font-size="14.00">_layout</text>
</g>
<!-- ApplicationController&#45;&gt;ServicesController -->
<g id="edge18" class="edge"><title>ApplicationController&#45;&gt;ServicesController</title>
<path fill="none" stroke="black" d="M620.051,-502.267C700.479,-455.288 832.737,-378.034 909.005,-333.485"/>
</g>
<!-- HomeController -->
<g id="node12" class="node"><title>HomeController</title>
<path fill="none" stroke="black" d="M726.511,-62.9944C726.511,-62.9944 808.511,-62.9944 808.511,-62.9944 814.511,-62.9944 820.511,-68.9944 820.511,-74.9944 820.511,-74.9944 820.511,-143.994 820.511,-143.994 820.511,-149.994 814.511,-155.994 808.511,-155.994 808.511,-155.994 726.511,-155.994 726.511,-155.994 720.511,-155.994 714.511,-149.994 714.511,-143.994 714.511,-143.994 714.511,-74.9944 714.511,-74.9944 714.511,-68.9944 720.511,-62.9944 726.511,-62.9944"/>
<text text-anchor="middle" x="767.511" y="-140.794" font-family="Times,serif" font-size="14.00">HomeController</text>
<polyline fill="none" stroke="black" points="714.511,-132.994 820.511,-132.994 "/>
<text text-anchor="start" x="722.511" y="-117.794" font-family="Times,serif" font-size="14.00">index</text>
<polyline fill="none" stroke="black" points="714.511,-109.994 820.511,-109.994 "/>
<polyline fill="none" stroke="black" points="714.511,-85.9944 820.511,-85.9944 "/>
<text text-anchor="start" x="722.511" y="-70.7944" font-family="Times,serif" font-size="14.00">_layout</text>
</g>
<!-- ApplicationController&#45;&gt;HomeController -->
<g id="edge20" class="edge"><title>ApplicationController&#45;&gt;HomeController</title>
<path fill="none" stroke="black" d="M579.068,-487.37C621.876,-401.528 704,-236.849 744.193,-156.253"/>
</g>
<!-- ServicetagsController -->
<g id="node13" class="node"><title>ServicetagsController</title>
<path fill="none" stroke="black" d="M141.635,-781.123C141.635,-781.123 251.635,-781.123 251.635,-781.123 257.635,-781.123 263.635,-787.123 263.635,-793.123 263.635,-793.123 263.635,-952.123 263.635,-952.123 263.635,-958.123 257.635,-964.123 251.635,-964.123 251.635,-964.123 141.635,-964.123 141.635,-964.123 135.635,-964.123 129.635,-958.123 129.635,-952.123 129.635,-952.123 129.635,-793.123 129.635,-793.123 129.635,-787.123 135.635,-781.123 141.635,-781.123"/>
<text text-anchor="middle" x="196.635" y="-948.923" font-family="Times,serif" font-size="14.00">ServicetagsController</text>
<polyline fill="none" stroke="black" points="129.635,-941.123 263.635,-941.123 "/>
<text text-anchor="start" x="137.635" y="-925.923" font-family="Times,serif" font-size="14.00">create</text>
<text text-anchor="start" x="137.635" y="-910.923" font-family="Times,serif" font-size="14.00">destroy</text>
<text text-anchor="start" x="137.635" y="-895.923" font-family="Times,serif" font-size="14.00">edit</text>
<text text-anchor="start" x="137.635" y="-880.923" font-family="Times,serif" font-size="14.00">index</text>
<text text-anchor="start" x="137.635" y="-865.923" font-family="Times,serif" font-size="14.00">new</text>
<text text-anchor="start" x="137.635" y="-850.923" font-family="Times,serif" font-size="14.00">show</text>
<text text-anchor="start" x="137.635" y="-835.923" font-family="Times,serif" font-size="14.00">update</text>
<polyline fill="none" stroke="black" points="129.635,-828.123 263.635,-828.123 "/>
<polyline fill="none" stroke="black" points="129.635,-804.123 263.635,-804.123 "/>
<text text-anchor="start" x="137.635" y="-788.923" font-family="Times,serif" font-size="14.00">_layout</text>
</g>
<!-- ApplicationController&#45;&gt;ServicetagsController -->
<g id="edge22" class="edge"><title>ApplicationController&#45;&gt;ServicetagsController</title>
<path fill="none" stroke="black" d="M493.102,-596.736C430.064,-655.398 330.016,-748.501 263.845,-810.079"/>
</g>
</g>
</svg>
