<?xml version="1.0" encoding="UTF-8" standalone="no"?>
<!DOCTYPE svg PUBLIC "-//W3C//DTD SVG 1.1//EN"
 "http://www.w3.org/Graphics/SVG/1.1/DTD/svg11.dtd">
<!-- Generated by graphviz version 2.32.0 (20130912.2142)
 -->
<!-- Title: models_diagram Pages: 1 -->
<svg width="1412pt" height="712pt"
 viewBox="0.00 0.00 1411.59 712.00" xmlns="http://www.w3.org/2000/svg" xmlns:xlink="http://www.w3.org/1999/xlink">
<g id="graph1" class="graph" transform="scale(1 1) rotate(0) translate(4 708)">
<title>models_diagram</title>
<polygon fill="white" stroke="white" points="-4,5 -4,-708 1408.59,-708 1408.59,5 -4,5"/>
<!-- _diagram_info -->
<g id="node1" class="node"><title>_diagram_info</title>
<text text-anchor="start" x="372.589" y="-689.6" font-family="Times,serif" font-size="13.00">Models diagram</text>
<text text-anchor="start" x="372.589" y="-675.6" font-family="Times,serif" font-size="13.00">Date: Sep 27 2013 &#45; 18:44</text>
<text text-anchor="start" x="372.589" y="-661.6" font-family="Times,serif" font-size="13.00">Migration version: 20130722114758</text>
<text text-anchor="start" x="372.589" y="-647.6" font-family="Times,serif" font-size="13.00">Generated by RailRoady 1.1.1</text>
<text text-anchor="start" x="372.589" y="-633.6" font-family="Times,serif" font-size="13.00">http://railroady.prestonlee.com</text>
</g>
<!-- Service -->
<g id="node2" class="node"><title>Service</title>
<path fill="none" stroke="black" d="M555.589,-256.5C555.589,-256.5 691.589,-256.5 691.589,-256.5 697.589,-256.5 703.589,-262.5 703.589,-268.5 703.589,-268.5 703.589,-365.5 703.589,-365.5 703.589,-371.5 697.589,-377.5 691.589,-377.5 691.589,-377.5 555.589,-377.5 555.589,-377.5 549.589,-377.5 543.589,-371.5 543.589,-365.5 543.589,-365.5 543.589,-268.5 543.589,-268.5 543.589,-262.5 549.589,-256.5 555.589,-256.5"/>
<text text-anchor="middle" x="623.589" y="-362.3" font-family="Times,serif" font-size="14.00">Service</text>
<polyline fill="none" stroke="black" points="543.589,-354.5 703.589,-354.5 "/>
<text text-anchor="start" x="551.589" y="-339.3" font-family="Times,serif" font-size="14.00">id :integer</text>
<text text-anchor="start" x="551.589" y="-324.3" font-family="Times,serif" font-size="14.00">name :string</text>
<text text-anchor="start" x="551.589" y="-309.3" font-family="Times,serif" font-size="14.00">created_at :datetime</text>
<text text-anchor="start" x="551.589" y="-294.3" font-family="Times,serif" font-size="14.00">updated_at :datetime</text>
<text text-anchor="start" x="551.589" y="-279.3" font-family="Times,serif" font-size="14.00">host_id :integer</text>
<text text-anchor="start" x="551.589" y="-264.3" font-family="Times,serif" font-size="14.00">notification_delay :integer</text>
</g>
<!-- Servicetag -->
<g id="node8" class="node"><title>Servicetag</title>
<path fill="none" stroke="black" d="M187.089,-45.5C187.089,-45.5 294.089,-45.5 294.089,-45.5 300.089,-45.5 306.089,-51.5 306.089,-57.5 306.089,-57.5 306.089,-154.5 306.089,-154.5 306.089,-160.5 300.089,-166.5 294.089,-166.5 294.089,-166.5 187.089,-166.5 187.089,-166.5 181.089,-166.5 175.089,-160.5 175.089,-154.5 175.089,-154.5 175.089,-57.5 175.089,-57.5 175.089,-51.5 181.089,-45.5 187.089,-45.5"/>
<text text-anchor="middle" x="240.589" y="-151.3" font-family="Times,serif" font-size="14.00">Servicetag</text>
<polyline fill="none" stroke="black" points="175.089,-143.5 306.089,-143.5 "/>
<text text-anchor="start" x="183.089" y="-128.3" font-family="Times,serif" font-size="14.00">id :integer</text>
<text text-anchor="start" x="183.089" y="-113.3" font-family="Times,serif" font-size="14.00">name :string</text>
<text text-anchor="start" x="183.089" y="-98.3" font-family="Times,serif" font-size="14.00">description :string</text>
<text text-anchor="start" x="183.089" y="-83.3" font-family="Times,serif" font-size="14.00">created_at :datetime</text>
<text text-anchor="start" x="183.089" y="-68.3" font-family="Times,serif" font-size="14.00">updated_at :datetime</text>
<text text-anchor="start" x="183.089" y="-53.3" font-family="Times,serif" font-size="14.00">css_classes :string</text>
</g>
<!-- Service&#45;&gt;Servicetag -->
<g id="edge4" class="edge"><title>Service&#45;&gt;Servicetag</title>
<path fill="none" stroke="#c0e87f" d="M534.485,-267.377C467.927,-231.056 377.99,-181.979 315.202,-147.716"/>
<polygon fill="#c0e87f" stroke="#c0e87f" points="534.522,-267.397 541.144,-276.137 538.911,-269.792 543.3,-272.187 543.3,-272.187 543.3,-272.187 538.911,-269.792 545.455,-268.237 534.522,-267.397 534.522,-267.397"/>
<polygon fill="#c0e87f" stroke="#c0e87f" points="314.92,-147.562 308.297,-138.821 310.531,-145.167 306.142,-142.772 306.142,-142.772 306.142,-142.772 310.531,-145.167 303.986,-146.722 314.92,-147.562 314.92,-147.562"/>
</g>
<!-- ServiceStat -->
<g id="node11" class="node"><title>ServiceStat</title>
<path fill="none" stroke="black" d="M543.589,-45.5C543.589,-45.5 679.589,-45.5 679.589,-45.5 685.589,-45.5 691.589,-51.5 691.589,-57.5 691.589,-57.5 691.589,-154.5 691.589,-154.5 691.589,-160.5 685.589,-166.5 679.589,-166.5 679.589,-166.5 543.589,-166.5 543.589,-166.5 537.589,-166.5 531.589,-160.5 531.589,-154.5 531.589,-154.5 531.589,-57.5 531.589,-57.5 531.589,-51.5 537.589,-45.5 543.589,-45.5"/>
<text text-anchor="middle" x="611.589" y="-151.3" font-family="Times,serif" font-size="14.00">ServiceStat</text>
<polyline fill="none" stroke="black" points="531.589,-143.5 691.589,-143.5 "/>
<text text-anchor="start" x="539.589" y="-128.3" font-family="Times,serif" font-size="14.00">id :integer</text>
<text text-anchor="start" x="539.589" y="-113.3" font-family="Times,serif" font-size="14.00">name :string</text>
<text text-anchor="start" x="539.589" y="-98.3" font-family="Times,serif" font-size="14.00">created_at :datetime</text>
<text text-anchor="start" x="539.589" y="-83.3" font-family="Times,serif" font-size="14.00">updated_at :datetime</text>
<text text-anchor="start" x="539.589" y="-68.3" font-family="Times,serif" font-size="14.00">host_id :integer</text>
<text text-anchor="start" x="539.589" y="-53.3" font-family="Times,serif" font-size="14.00">notification_delay :integer</text>
</g>
<!-- Service&#45;&gt;ServiceStat -->
<g id="edge32" class="edge"><title>Service&#45;&gt;ServiceStat</title>
<path fill="none" stroke="black" d="M620.166,-256.389C618.552,-228.276 616.631,-194.813 615.016,-166.69"/>
</g>
<!-- Alert -->
<g id="node14" class="node"><title>Alert</title>
<path fill="none" stroke="black" d="M721.589,-0.5C721.589,-0.5 841.589,-0.5 841.589,-0.5 847.589,-0.5 853.589,-6.5 853.589,-12.5 853.589,-12.5 853.589,-199.5 853.589,-199.5 853.589,-205.5 847.589,-211.5 841.589,-211.5 841.589,-211.5 721.589,-211.5 721.589,-211.5 715.589,-211.5 709.589,-205.5 709.589,-199.5 709.589,-199.5 709.589,-12.5 709.589,-12.5 709.589,-6.5 715.589,-0.5 721.589,-0.5"/>
<text text-anchor="middle" x="781.589" y="-196.3" font-family="Times,serif" font-size="14.00">Alert</text>
<polyline fill="none" stroke="black" points="709.589,-188.5 853.589,-188.5 "/>
<text text-anchor="start" x="717.589" y="-173.3" font-family="Times,serif" font-size="14.00">id :integer</text>
<text text-anchor="start" x="717.589" y="-158.3" font-family="Times,serif" font-size="14.00">date_start :datetime</text>
<text text-anchor="start" x="717.589" y="-143.3" font-family="Times,serif" font-size="14.00">date_end :datetime</text>
<text text-anchor="start" x="717.589" y="-128.3" font-family="Times,serif" font-size="14.00">check_status :integer</text>
<text text-anchor="start" x="717.589" y="-113.3" font-family="Times,serif" font-size="14.00">service_output :string</text>
<text text-anchor="start" x="717.589" y="-98.3" font-family="Times,serif" font-size="14.00">service_perfdata :string</text>
<text text-anchor="start" x="717.589" y="-83.3" font-family="Times,serif" font-size="14.00">duration :integer</text>
<text text-anchor="start" x="717.589" y="-68.3" font-family="Times,serif" font-size="14.00">service_id :integer</text>
<text text-anchor="start" x="717.589" y="-53.3" font-family="Times,serif" font-size="14.00">report_id :integer</text>
<text text-anchor="start" x="717.589" y="-38.3" font-family="Times,serif" font-size="14.00">created_at :datetime</text>
<text text-anchor="start" x="717.589" y="-23.3" font-family="Times,serif" font-size="14.00">updated_at :datetime</text>
<text text-anchor="start" x="717.589" y="-8.3" font-family="Times,serif" font-size="14.00">host_id :integer</text>
</g>
<!-- Service&#45;&gt;Alert -->
<g id="edge2" class="edge"><title>Service&#45;&gt;Alert</title>
<path fill="none" stroke="#d7d6e8" d="M673.778,-249.611C683.136,-237.233 693.118,-224.028 703.09,-210.837"/>
<ellipse fill="none" stroke="#d7d6e8" cx="671.066" cy="-253.198" rx="4.00002" ry="4.00002"/>
<polygon fill="#d7d6e8" stroke="#d7d6e8" points="703.262,-210.61 712.882,-205.347 706.277,-206.621 709.292,-202.633 709.292,-202.633 709.292,-202.633 706.277,-206.621 705.703,-199.919 703.262,-210.61 703.262,-210.61"/>
</g>
<!-- User -->
<g id="node3" class="node"><title>User</title>
<path fill="none" stroke="black" d="M61.589,-445.5C61.589,-445.5 187.589,-445.5 187.589,-445.5 193.589,-445.5 199.589,-451.5 199.589,-457.5 199.589,-457.5 199.589,-554.5 199.589,-554.5 199.589,-560.5 193.589,-566.5 187.589,-566.5 187.589,-566.5 61.589,-566.5 61.589,-566.5 55.589,-566.5 49.589,-560.5 49.589,-554.5 49.589,-554.5 49.589,-457.5 49.589,-457.5 49.589,-451.5 55.589,-445.5 61.589,-445.5"/>
<text text-anchor="middle" x="124.589" y="-551.3" font-family="Times,serif" font-size="14.00">User</text>
<polyline fill="none" stroke="black" points="49.589,-543.5 199.589,-543.5 "/>
<text text-anchor="start" x="57.589" y="-528.3" font-family="Times,serif" font-size="14.00">id :integer</text>
<text text-anchor="start" x="57.589" y="-513.3" font-family="Times,serif" font-size="14.00">name :string</text>
<text text-anchor="start" x="57.589" y="-498.3" font-family="Times,serif" font-size="14.00">hashed_password :string</text>
<text text-anchor="start" x="57.589" y="-483.3" font-family="Times,serif" font-size="14.00">salt :string</text>
<text text-anchor="start" x="57.589" y="-468.3" font-family="Times,serif" font-size="14.00">created_at :datetime</text>
<text text-anchor="start" x="57.589" y="-453.3" font-family="Times,serif" font-size="14.00">updated_at :datetime</text>
</g>
<!-- ServicesServicetag -->
<g id="node4" class="node"><title>ServicesServicetag</title>
<path fill="none" stroke="black" d="M229.589,-475.5C229.589,-475.5 339.589,-475.5 339.589,-475.5 345.589,-475.5 351.589,-481.5 351.589,-487.5 351.589,-487.5 351.589,-524.5 351.589,-524.5 351.589,-530.5 345.589,-536.5 339.589,-536.5 339.589,-536.5 229.589,-536.5 229.589,-536.5 223.589,-536.5 217.589,-530.5 217.589,-524.5 217.589,-524.5 217.589,-487.5 217.589,-487.5 217.589,-481.5 223.589,-475.5 229.589,-475.5"/>
<text text-anchor="middle" x="284.589" y="-521.3" font-family="Times,serif" font-size="14.00">ServicesServicetag</text>
<polyline fill="none" stroke="black" points="217.589,-513.5 351.589,-513.5 "/>
<text text-anchor="start" x="225.589" y="-498.3" font-family="Times,serif" font-size="14.00">servicetag_id :integer</text>
<text text-anchor="start" x="225.589" y="-483.3" font-family="Times,serif" font-size="14.00">service_id :integer</text>
</g>
<!-- AlertFilter -->
<g id="node5" class="node"><title>AlertFilter</title>
<polygon fill="none" stroke="black" points="1329.59,-483 1329.59,-529 1403.59,-529 1403.59,-483 1329.59,-483"/>
<text text-anchor="middle" x="1366.59" y="-513.8" font-family="Times,serif" font-size="14.00">AlertFilter</text>
<polyline fill="none" stroke="black" points="1329.59,-506 1403.59,-506 "/>
<text text-anchor="middle" x="1366.59" y="-490.8" font-family="Times,serif" font-size="14.00"> </text>
</g>
<!-- Host -->
<g id="node6" class="node"><title>Host</title>
<path fill="none" stroke="black" d="M555.589,-453C555.589,-453 691.589,-453 691.589,-453 697.589,-453 703.589,-459 703.589,-465 703.589,-465 703.589,-547 703.589,-547 703.589,-553 697.589,-559 691.589,-559 691.589,-559 555.589,-559 555.589,-559 549.589,-559 543.589,-553 543.589,-547 543.589,-547 543.589,-465 543.589,-465 543.589,-459 549.589,-453 555.589,-453"/>
<text text-anchor="middle" x="623.589" y="-543.8" font-family="Times,serif" font-size="14.00">Host</text>
<polyline fill="none" stroke="black" points="543.589,-536 703.589,-536 "/>
<text text-anchor="start" x="551.589" y="-520.8" font-family="Times,serif" font-size="14.00">id :integer</text>
<text text-anchor="start" x="551.589" y="-505.8" font-family="Times,serif" font-size="14.00">name :string</text>
<text text-anchor="start" x="551.589" y="-490.8" font-family="Times,serif" font-size="14.00">created_at :datetime</text>
<text text-anchor="start" x="551.589" y="-475.8" font-family="Times,serif" font-size="14.00">updated_at :datetime</text>
<text text-anchor="start" x="551.589" y="-460.8" font-family="Times,serif" font-size="14.00">notification_delay :integer</text>
</g>
<!-- Host&#45;&gt;Service -->
<g id="edge16" class="edge"><title>Host&#45;&gt;Service</title>
<path fill="none" stroke="#07f865" d="M623.589,-444.822C623.589,-426.701 623.589,-406.659 623.589,-387.96"/>
<ellipse fill="none" stroke="#07f865" cx="623.589" cy="-448.91" rx="4" ry="4"/>
<polygon fill="#07f865" stroke="#07f865" points="623.589,-387.73 628.089,-377.73 623.589,-382.73 623.589,-377.73 623.589,-377.73 623.589,-377.73 623.589,-382.73 619.089,-377.73 623.589,-387.73 623.589,-387.73"/>
</g>
<!-- Hosttag -->
<g id="node12" class="node"><title>Hosttag</title>
<path fill="none" stroke="black" d="M366.089,-256.5C366.089,-256.5 473.089,-256.5 473.089,-256.5 479.089,-256.5 485.089,-262.5 485.089,-268.5 485.089,-268.5 485.089,-365.5 485.089,-365.5 485.089,-371.5 479.089,-377.5 473.089,-377.5 473.089,-377.5 366.089,-377.5 366.089,-377.5 360.089,-377.5 354.089,-371.5 354.089,-365.5 354.089,-365.5 354.089,-268.5 354.089,-268.5 354.089,-262.5 360.089,-256.5 366.089,-256.5"/>
<text text-anchor="middle" x="419.589" y="-362.3" font-family="Times,serif" font-size="14.00">Hosttag</text>
<polyline fill="none" stroke="black" points="354.089,-354.5 485.089,-354.5 "/>
<text text-anchor="start" x="362.089" y="-339.3" font-family="Times,serif" font-size="14.00">id :integer</text>
<text text-anchor="start" x="362.089" y="-324.3" font-family="Times,serif" font-size="14.00">name :string</text>
<text text-anchor="start" x="362.089" y="-309.3" font-family="Times,serif" font-size="14.00">description :string</text>
<text text-anchor="start" x="362.089" y="-294.3" font-family="Times,serif" font-size="14.00">css_classes :string</text>
<text text-anchor="start" x="362.089" y="-279.3" font-family="Times,serif" font-size="14.00">created_at :datetime</text>
<text text-anchor="start" x="362.089" y="-264.3" font-family="Times,serif" font-size="14.00">updated_at :datetime</text>
</g>
<!-- Host&#45;&gt;Hosttag -->
<g id="edge14" class="edge"><title>Host&#45;&gt;Hosttag</title>
<path fill="none" stroke="#bf9c25" d="M560.189,-445.652C551.604,-437.681 542.894,-429.627 534.589,-422 521.123,-409.633 506.707,-396.507 492.793,-383.896"/>
<polygon fill="#bf9c25" stroke="#bf9c25" points="560.364,-445.815 564.624,-455.919 564.026,-449.219 567.688,-452.623 567.688,-452.623 567.688,-452.623 564.026,-449.219 570.752,-449.327 560.364,-445.815 560.364,-445.815"/>
<polygon fill="#bf9c25" stroke="#bf9c25" points="492.536,-383.664 488.145,-373.615 488.83,-380.307 485.124,-376.951 485.124,-376.951 485.124,-376.951 488.83,-380.307 482.103,-380.286 492.536,-383.664 492.536,-383.664"/>
</g>
<!-- HostsHosttag -->
<g id="node7" class="node"><title>HostsHosttag</title>
<path fill="none" stroke="black" d="M419.589,-475.5C419.589,-475.5 513.589,-475.5 513.589,-475.5 519.589,-475.5 525.589,-481.5 525.589,-487.5 525.589,-487.5 525.589,-524.5 525.589,-524.5 525.589,-530.5 519.589,-536.5 513.589,-536.5 513.589,-536.5 419.589,-536.5 419.589,-536.5 413.589,-536.5 407.589,-530.5 407.589,-524.5 407.589,-524.5 407.589,-487.5 407.589,-487.5 407.589,-481.5 413.589,-475.5 419.589,-475.5"/>
<text text-anchor="middle" x="466.589" y="-521.3" font-family="Times,serif" font-size="14.00">HostsHosttag</text>
<polyline fill="none" stroke="black" points="407.589,-513.5 525.589,-513.5 "/>
<text text-anchor="start" x="415.589" y="-498.3" font-family="Times,serif" font-size="14.00">hosttag_id :integer</text>
<text text-anchor="start" x="415.589" y="-483.3" font-family="Times,serif" font-size="14.00">host_id :integer</text>
</g>
<!-- Reporttag -->
<g id="node9" class="node"><title>Reporttag</title>
<path fill="none" stroke="black" d="M809.589,-438C809.589,-438 953.589,-438 953.589,-438 959.589,-438 965.589,-444 965.589,-450 965.589,-450 965.589,-562 965.589,-562 965.589,-568 959.589,-574 953.589,-574 953.589,-574 809.589,-574 809.589,-574 803.589,-574 797.589,-568 797.589,-562 797.589,-562 797.589,-450 797.589,-450 797.589,-444 803.589,-438 809.589,-438"/>
<text text-anchor="middle" x="881.589" y="-558.8" font-family="Times,serif" font-size="14.00">Reporttag</text>
<polyline fill="none" stroke="black" points="797.589,-551 965.589,-551 "/>
<text text-anchor="start" x="805.589" y="-535.8" font-family="Times,serif" font-size="14.00">id :integer</text>
<text text-anchor="start" x="805.589" y="-520.8" font-family="Times,serif" font-size="14.00">name :string</text>
<text text-anchor="start" x="805.589" y="-505.8" font-family="Times,serif" font-size="14.00">description :string</text>
<text text-anchor="start" x="805.589" y="-490.8" font-family="Times,serif" font-size="14.00">css_classes :string</text>
<text text-anchor="start" x="805.589" y="-475.8" font-family="Times,serif" font-size="14.00">created_at :datetime</text>
<text text-anchor="start" x="805.589" y="-460.8" font-family="Times,serif" font-size="14.00">updated_at :datetime</text>
<text text-anchor="start" x="805.589" y="-445.8" font-family="Times,serif" font-size="14.00">exclude_from_stats :integer</text>
</g>
<!-- Report -->
<g id="node10" class="node"><title>Report</title>
<path fill="none" stroke="black" d="M817.089,-249C817.089,-249 946.089,-249 946.089,-249 952.089,-249 958.089,-255 958.089,-261 958.089,-261 958.089,-373 958.089,-373 958.089,-379 952.089,-385 946.089,-385 946.089,-385 817.089,-385 817.089,-385 811.089,-385 805.089,-379 805.089,-373 805.089,-373 805.089,-261 805.089,-261 805.089,-255 811.089,-249 817.089,-249"/>
<text text-anchor="middle" x="881.589" y="-369.8" font-family="Times,serif" font-size="14.00">Report</text>
<polyline fill="none" stroke="black" points="805.089,-362 958.089,-362 "/>
<text text-anchor="start" x="813.089" y="-346.8" font-family="Times,serif" font-size="14.00">id :integer</text>
<text text-anchor="start" x="813.089" y="-331.8" font-family="Times,serif" font-size="14.00">label :string</text>
<text text-anchor="start" x="813.089" y="-316.8" font-family="Times,serif" font-size="14.00">description :string</text>
<text text-anchor="start" x="813.089" y="-301.8" font-family="Times,serif" font-size="14.00">estimated_date :datetime</text>
<text text-anchor="start" x="813.089" y="-286.8" font-family="Times,serif" font-size="14.00">select_priority :integer</text>
<text text-anchor="start" x="813.089" y="-271.8" font-family="Times,serif" font-size="14.00">created_at :datetime</text>
<text text-anchor="start" x="813.089" y="-256.8" font-family="Times,serif" font-size="14.00">updated_at :datetime</text>
</g>
<!-- Reporttag&#45;&gt;Report -->
<g id="edge24" class="edge"><title>Reporttag&#45;&gt;Report</title>
<path fill="none" stroke="#b3478a" d="M881.589,-427.626C881.589,-416.975 881.589,-406.035 881.589,-395.384"/>
<polygon fill="#b3478a" stroke="#b3478a" points="881.589,-427.753 877.089,-437.753 881.589,-432.753 881.589,-437.753 881.589,-437.753 881.589,-437.753 881.589,-432.753 886.089,-437.753 881.589,-427.753 881.589,-427.753"/>
<polygon fill="#b3478a" stroke="#b3478a" points="881.589,-395.279 886.089,-385.279 881.589,-390.279 881.589,-385.279 881.589,-385.279 881.589,-385.279 881.589,-390.279 877.089,-385.279 881.589,-395.279 881.589,-395.279"/>
</g>
<!-- Report&#45;&gt;Alert -->
<g id="edge28" class="edge"><title>Report&#45;&gt;Alert</title>
<path fill="none" stroke="#ca1edf" d="M845.913,-241.437C842.746,-234.819 839.496,-228.026 836.219,-221.177"/>
<ellipse fill="none" stroke="#ca1edf" cx="847.672" cy="-245.112" rx="4.00002" ry="4.00002"/>
<polygon fill="#ca1edf" stroke="#ca1edf" points="836.055,-220.834 835.798,-209.871 833.897,-216.324 831.739,-211.813 831.739,-211.813 831.739,-211.813 833.897,-216.324 827.68,-213.756 836.055,-220.834 836.055,-220.834"/>
</g>
<!-- CurrentAlerts -->
<g id="node13" class="node"><title>CurrentAlerts</title>
<path fill="none" stroke="black" d="M995.589,-423C995.589,-423 1115.59,-423 1115.59,-423 1121.59,-423 1127.59,-429 1127.59,-435 1127.59,-435 1127.59,-577 1127.59,-577 1127.59,-583 1121.59,-589 1115.59,-589 1115.59,-589 995.589,-589 995.589,-589 989.589,-589 983.589,-583 983.589,-577 983.589,-577 983.589,-435 983.589,-435 983.589,-429 989.589,-423 995.589,-423"/>
<text text-anchor="middle" x="1055.59" y="-573.8" font-family="Times,serif" font-size="14.00">CurrentAlerts</text>
<polyline fill="none" stroke="black" points="983.589,-566 1127.59,-566 "/>
<text text-anchor="start" x="991.589" y="-550.8" font-family="Times,serif" font-size="14.00">id :integer</text>
<text text-anchor="start" x="991.589" y="-535.8" font-family="Times,serif" font-size="14.00">hostname :string</text>
<text text-anchor="start" x="991.589" y="-520.8" font-family="Times,serif" font-size="14.00">description :string</text>
<text text-anchor="start" x="991.589" y="-505.8" font-family="Times,serif" font-size="14.00">check_status :integer</text>
<text text-anchor="start" x="991.589" y="-490.8" font-family="Times,serif" font-size="14.00">check_date :integer</text>
<text text-anchor="start" x="991.589" y="-475.8" font-family="Times,serif" font-size="14.00">service_output :string</text>
<text text-anchor="start" x="991.589" y="-460.8" font-family="Times,serif" font-size="14.00">service_perfdata :string</text>
<text text-anchor="start" x="991.589" y="-445.8" font-family="Times,serif" font-size="14.00">created_at :datetime</text>
<text text-anchor="start" x="991.589" y="-430.8" font-family="Times,serif" font-size="14.00">updated_at :datetime</text>
</g>
<!-- ReportsReporttag -->
<g id="node15" class="node"><title>ReportsReporttag</title>
<path fill="none" stroke="black" d="M1195.59,-475.5C1195.59,-475.5 1299.59,-475.5 1299.59,-475.5 1305.59,-475.5 1311.59,-481.5 1311.59,-487.5 1311.59,-487.5 1311.59,-524.5 1311.59,-524.5 1311.59,-530.5 1305.59,-536.5 1299.59,-536.5 1299.59,-536.5 1195.59,-536.5 1195.59,-536.5 1189.59,-536.5 1183.59,-530.5 1183.59,-524.5 1183.59,-524.5 1183.59,-487.5 1183.59,-487.5 1183.59,-481.5 1189.59,-475.5 1195.59,-475.5"/>
<text text-anchor="middle" x="1247.59" y="-521.3" font-family="Times,serif" font-size="14.00">ReportsReporttag</text>
<polyline fill="none" stroke="black" points="1183.59,-513.5 1311.59,-513.5 "/>
<text text-anchor="start" x="1191.59" y="-498.3" font-family="Times,serif" font-size="14.00">reporttag_id :integer</text>
<text text-anchor="start" x="1191.59" y="-483.3" font-family="Times,serif" font-size="14.00">report_id :integer</text>
</g>
<!-- ActiveRecord::Base -->
<g id="node18" class="node"><title>ActiveRecord::Base</title>
<ellipse fill="none" stroke="black" cx="677.589" cy="-665" rx="81.3646" ry="18"/>
<text text-anchor="middle" x="677.589" y="-661.3" font-family="Times,serif" font-size="14.00">ActiveRecord::Base</text>
</g>
<!-- ActiveRecord::Base&#45;&gt;Service -->
<g id="edge6" class="edge"><title>ActiveRecord::Base&#45;&gt;Service</title>
<path fill="none" stroke="black" d="M688.219,-647.143C696.705,-632.631 707.918,-610.8 712.589,-590 728.949,-517.148 738.467,-492.039 712.589,-422 706.741,-406.173 697.292,-391.125 686.687,-377.642"/>
</g>
<!-- ActiveRecord::Base&#45;&gt;User -->
<g id="edge8" class="edge"><title>ActiveRecord::Base&#45;&gt;User</title>
<path fill="none" stroke="black" d="M646.383,-648.221C629.177,-640.231 607.183,-631.155 586.589,-626 422.879,-585.023 361.477,-661.451 208.589,-590 196.331,-584.271 184.81,-575.979 174.461,-566.827"/>
</g>
<!-- ActiveRecord::Base&#45;&gt;ServicesServicetag -->
<g id="edge10" class="edge"><title>ActiveRecord::Base&#45;&gt;ServicesServicetag</title>
<path fill="none" stroke="black" d="M645.399,-648.385C628.28,-640.642 606.671,-631.743 586.589,-626 490.907,-598.639 453.881,-635.914 365.589,-590 341.473,-577.459 320.267,-555.064 305.608,-536.694"/>
</g>
<!-- ActiveRecord::Base&#45;&gt;Host -->
<g id="edge18" class="edge"><title>ActiveRecord::Base&#45;&gt;Host</title>
<path fill="none" stroke="black" d="M671.707,-646.899C664.518,-625.998 652.018,-589.655 641.561,-559.251"/>
</g>
<!-- ActiveRecord::Base&#45;&gt;HostsHosttag -->
<g id="edge20" class="edge"><title>ActiveRecord::Base&#45;&gt;HostsHosttag</title>
<path fill="none" stroke="black" d="M638.946,-649.116C608.639,-636.289 566.407,-615.781 534.589,-590 515.918,-574.872 498.798,-553.914 486.406,-536.844"/>
</g>
<!-- ActiveRecord::Base&#45;&gt;Servicetag -->
<g id="edge22" class="edge"><title>ActiveRecord::Base&#45;&gt;Servicetag</title>
<path fill="none" stroke="black" d="M646.856,-648.176C629.607,-640.068 607.423,-630.894 586.589,-626 527.401,-612.098 82.1417,-634.383 40.589,-590 -75.2503,-466.271 84.3499,-266.028 179.173,-166.747"/>
</g>
<!-- ActiveRecord::Base&#45;&gt;Reporttag -->
<g id="edge26" class="edge"><title>ActiveRecord::Base&#45;&gt;Reporttag</title>
<path fill="none" stroke="black" d="M702.474,-647.588C724.257,-632.996 756.557,-610.81 783.589,-590 790.214,-584.9 797.001,-579.512 803.761,-574.032"/>
</g>
<!-- ActiveRecord::Base&#45;&gt;Report -->
<g id="edge30" class="edge"><title>ActiveRecord::Base&#45;&gt;Report</title>
<path fill="none" stroke="black" d="M758.536,-663.042C877.062,-659.73 1088.96,-645.919 1136.59,-590 1185,-533.156 1178.24,-483.97 1136.59,-422 1097.12,-363.272 1018.06,-337.689 958.374,-326.555"/>
</g>
<!-- ActiveRecord::Base&#45;&gt;Hosttag -->
<g id="edge34" class="edge"><title>ActiveRecord::Base&#45;&gt;Hosttag</title>
<path fill="none" stroke="black" d="M644.91,-648.425C627.841,-640.787 606.426,-631.971 586.589,-626 505.126,-601.479 452.794,-655.569 398.589,-590 349.853,-531.046 370.966,-438.224 393.194,-377.728"/>
</g>
<!-- ActiveRecord::Base&#45;&gt;CurrentAlerts -->
<g id="edge36" class="edge"><title>ActiveRecord::Base&#45;&gt;CurrentAlerts</title>
<path fill="none" stroke="black" d="M750.44,-656.946C813.008,-648.369 903.875,-629.751 973.589,-590 976.932,-588.094 980.231,-586.013 983.473,-583.795"/>
</g>
<!-- ActiveRecord::Base&#45;&gt;Alert -->
<g id="edge38" class="edge"><title>ActiveRecord::Base&#45;&gt;Alert</title>
<path fill="none" stroke="black" d="M695.341,-647.298C708.888,-633.376 726.692,-612.285 735.589,-590 784.781,-466.789 790.856,-312.364 788.247,-211.769"/>
</g>
<!-- ActiveRecord::Base&#45;&gt;ReportsReporttag -->
<g id="edge40" class="edge"><title>ActiveRecord::Base&#45;&gt;ReportsReporttag</title>
<path fill="none" stroke="black" d="M753.801,-658.642C873.399,-649.223 1098.82,-627.099 1169.59,-590 1193.23,-577.605 1213.63,-555.201 1227.63,-536.792"/>
</g>
<!-- Object -->
<g id="node22" class="node"><title>Object</title>
<ellipse fill="none" stroke="black" cx="1366.59" cy="-665" rx="34.1708" ry="18"/>
<text text-anchor="middle" x="1366.59" y="-661.3" font-family="Times,serif" font-size="14.00">Object</text>
</g>
<!-- Object&#45;&gt;AlertFilter -->
<g id="edge12" class="edge"><title>Object&#45;&gt;AlertFilter</title>
<path fill="none" stroke="black" d="M1366.59,-646.899C1366.59,-618.289 1366.59,-560.748 1366.59,-529.104"/>
</g>
</g>
</svg>
