<?xml version="1.0" encoding="UTF-8" standalone="no"?>
<!DOCTYPE svg PUBLIC "-//W3C//DTD SVG 1.1//EN"
 "http://www.w3.org/Graphics/SVG/1.1/DTD/svg11.dtd">
<!-- Generated by graphviz version 2.32.0 (20130912.2142)
 -->
<!-- Title: models_diagram Pages: 1 -->
<svg width="1116pt" height="302pt"
 viewBox="0.00 0.00 1115.81 302.00" xmlns="http://www.w3.org/2000/svg" xmlns:xlink="http://www.w3.org/1999/xlink">
<g id="graph1" class="graph" transform="scale(1 1) rotate(0) translate(4 298)">
<title>models_diagram</title>
<polygon fill="white" stroke="white" points="-4,5 -4,-298 1112.81,-298 1112.81,5 -4,5"/>
<!-- _diagram_info -->
<g id="node1" class="node"><title>_diagram_info</title>
<text text-anchor="start" x="188.807" y="-279.6" font-family="Times,serif" font-size="13.00">Models diagram</text>
<text text-anchor="start" x="188.807" y="-265.6" font-family="Times,serif" font-size="13.00">Date: Sep 27 2013 &#45; 18:44</text>
<text text-anchor="start" x="188.807" y="-251.6" font-family="Times,serif" font-size="13.00">Migration version: 20130722114758</text>
<text text-anchor="start" x="188.807" y="-237.6" font-family="Times,serif" font-size="13.00">Generated by RailRoady 1.1.1</text>
<text text-anchor="start" x="188.807" y="-223.6" font-family="Times,serif" font-size="13.00">http://railroady.prestonlee.com</text>
</g>
<!-- Service -->
<g id="node2" class="node"><title>Service</title>
<ellipse fill="none" stroke="black" cx="465.807" cy="-90" rx="37.0701" ry="18"/>
<text text-anchor="middle" x="465.807" y="-86.3" font-family="Times,serif" font-size="14.00">Service</text>
</g>
<!-- Servicetag -->
<g id="node8" class="node"><title>Servicetag</title>
<ellipse fill="none" stroke="black" cx="171.807" cy="-18" rx="48.1437" ry="18"/>
<text text-anchor="middle" x="171.807" y="-14.3" font-family="Times,serif" font-size="14.00">Servicetag</text>
</g>
<!-- Service&#45;&gt;Servicetag -->
<g id="edge4" class="edge"><title>Service&#45;&gt;Servicetag</title>
<path fill="none" stroke="#108c94" d="M423.141,-78.8414C369.597,-66.0927 277.937,-44.2691 221.348,-30.7955"/>
<polygon fill="#108c94" stroke="#108c94" points="423.493,-78.925 432.178,-85.6189 428.357,-80.0832 433.221,-81.2413 433.221,-81.2413 433.221,-81.2413 428.357,-80.0832 434.263,-76.8637 423.493,-78.925 423.493,-78.925"/>
<polygon fill="#108c94" stroke="#108c94" points="221.278,-30.779 212.593,-24.0851 216.414,-29.6208 211.55,-28.4627 211.55,-28.4627 211.55,-28.4627 216.414,-29.6208 210.508,-32.8403 221.278,-30.779 221.278,-30.779"/>
</g>
<!-- ServiceStat -->
<g id="node11" class="node"><title>ServiceStat</title>
<ellipse fill="none" stroke="black" cx="463.807" cy="-18" rx="50.5427" ry="18"/>
<text text-anchor="middle" x="463.807" y="-14.3" font-family="Times,serif" font-size="14.00">ServiceStat</text>
</g>
<!-- Service&#45;&gt;ServiceStat -->
<g id="edge32" class="edge"><title>Service&#45;&gt;ServiceStat</title>
<path fill="none" stroke="black" d="M465.313,-71.6966C465.003,-60.8463 464.605,-46.9167 464.296,-36.1043"/>
</g>
<!-- Alert -->
<g id="node14" class="node"><title>Alert</title>
<ellipse fill="none" stroke="black" cx="560.807" cy="-18" rx="28.3955" ry="18"/>
<text text-anchor="middle" x="560.807" y="-14.3" font-family="Times,serif" font-size="14.00">Alert</text>
</g>
<!-- Service&#45;&gt;Alert -->
<g id="edge2" class="edge"><title>Service&#45;&gt;Alert</title>
<path fill="none" stroke="#6db6d6" d="M492.162,-69.5803C505.473,-59.7723 521.567,-47.9135 534.825,-38.1444"/>
<ellipse fill="none" stroke="#6db6d6" cx="488.711" cy="-72.1231" rx="4.00002" ry="4.00002"/>
<polygon fill="#6db6d6" stroke="#6db6d6" points="535.02,-38.001 545.74,-35.6917 539.045,-35.035 543.071,-32.069 543.071,-32.069 543.071,-32.069 539.045,-35.035 540.401,-28.4462 535.02,-38.001 535.02,-38.001"/>
</g>
<!-- User -->
<g id="node3" class="node"><title>User</title>
<ellipse fill="none" stroke="black" cx="48.807" cy="-162" rx="26.949" ry="18"/>
<text text-anchor="middle" x="48.807" y="-158.3" font-family="Times,serif" font-size="14.00">User</text>
</g>
<!-- ServicesServicetag -->
<g id="node4" class="node"><title>ServicesServicetag</title>
<ellipse fill="none" stroke="black" cx="171.807" cy="-162" rx="77.0154" ry="18"/>
<text text-anchor="middle" x="171.807" y="-158.3" font-family="Times,serif" font-size="14.00">ServicesServicetag</text>
</g>
<!-- AlertFilter -->
<g id="node5" class="node"><title>AlertFilter</title>
<polygon fill="none" stroke="black" points="1107.81,-180 1033.81,-180 1033.81,-144 1107.81,-144 1107.81,-180"/>
<text text-anchor="middle" x="1070.81" y="-158.3" font-family="Times,serif" font-size="14.00">AlertFilter</text>
</g>
<!-- Host -->
<g id="node6" class="node"><title>Host</title>
<ellipse fill="none" stroke="black" cx="465.807" cy="-162" rx="26.949" ry="18"/>
<text text-anchor="middle" x="465.807" y="-158.3" font-family="Times,serif" font-size="14.00">Host</text>
</g>
<!-- Host&#45;&gt;Service -->
<g id="edge16" class="edge"><title>Host&#45;&gt;Service</title>
<path fill="none" stroke="#0ef4c5" d="M465.807,-135.64C465.807,-130.063 465.807,-124.132 465.807,-118.476"/>
<ellipse fill="none" stroke="#0ef4c5" cx="465.807" cy="-139.697" rx="4" ry="4"/>
<polygon fill="#0ef4c5" stroke="#0ef4c5" points="465.807,-118.104 470.307,-108.104 465.807,-113.104 465.807,-108.104 465.807,-108.104 465.807,-108.104 465.807,-113.104 461.307,-108.104 465.807,-118.104 465.807,-118.104"/>
</g>
<!-- Hosttag -->
<g id="node12" class="node"><title>Hosttag</title>
<ellipse fill="none" stroke="black" cx="324.807" cy="-90" rx="38.0212" ry="18"/>
<text text-anchor="middle" x="324.807" y="-86.3" font-family="Times,serif" font-size="14.00">Hosttag</text>
</g>
<!-- Host&#45;&gt;Hosttag -->
<g id="edge14" class="edge"><title>Host&#45;&gt;Hosttag</title>
<path fill="none" stroke="#7eac3b" d="M435.53,-145.969C413.224,-134.895 382.847,-119.814 359.552,-108.249"/>
<polygon fill="#7eac3b" stroke="#7eac3b" points="435.741,-146.074 442.697,-154.551 440.219,-148.297 444.698,-150.52 444.698,-150.52 444.698,-150.52 440.219,-148.297 446.699,-146.49 435.741,-146.074 435.741,-146.074"/>
<polygon fill="#7eac3b" stroke="#7eac3b" points="359.324,-108.136 352.368,-99.6585 354.845,-105.913 350.367,-103.689 350.367,-103.689 350.367,-103.689 354.845,-105.913 348.366,-107.72 359.324,-108.136 359.324,-108.136"/>
</g>
<!-- HostsHosttag -->
<g id="node7" class="node"><title>HostsHosttag</title>
<ellipse fill="none" stroke="black" cx="362.807" cy="-162" rx="57.2688" ry="18"/>
<text text-anchor="middle" x="362.807" y="-158.3" font-family="Times,serif" font-size="14.00">HostsHosttag</text>
</g>
<!-- Reporttag -->
<g id="node9" class="node"><title>Reporttag</title>
<ellipse fill="none" stroke="black" cx="631.807" cy="-162" rx="45.244" ry="18"/>
<text text-anchor="middle" x="631.807" y="-158.3" font-family="Times,serif" font-size="14.00">Reporttag</text>
</g>
<!-- Report -->
<g id="node10" class="node"><title>Report</title>
<ellipse fill="none" stroke="black" cx="631.807" cy="-90" rx="34.1708" ry="18"/>
<text text-anchor="middle" x="631.807" y="-86.3" font-family="Times,serif" font-size="14.00">Report</text>
</g>
<!-- Reporttag&#45;&gt;Report -->
<g id="edge24" class="edge"><title>Reporttag&#45;&gt;Report</title>
<path fill="none" stroke="#60b31b" d="M631.807,-133.665C631.807,-128.687 631.807,-123.491 631.807,-118.507"/>
<polygon fill="#60b31b" stroke="#60b31b" points="631.807,-133.697 627.307,-143.697 631.807,-138.697 631.807,-143.697 631.807,-143.697 631.807,-143.697 631.807,-138.697 636.307,-143.697 631.807,-133.697 631.807,-133.697"/>
<polygon fill="#60b31b" stroke="#60b31b" points="631.807,-118.104 636.307,-108.104 631.807,-113.104 631.807,-108.104 631.807,-108.104 631.807,-108.104 631.807,-113.104 627.307,-108.104 631.807,-118.104 631.807,-118.104"/>
</g>
<!-- Report&#45;&gt;Alert -->
<g id="edge28" class="edge"><title>Report&#45;&gt;Alert</title>
<path fill="none" stroke="#dc7d02" d="M610.439,-67.9334C601.768,-59.3841 591.752,-49.5092 582.998,-40.8789"/>
<ellipse fill="none" stroke="#dc7d02" cx="613.553" cy="-71.0027" rx="4.00002" ry="4.00002"/>
<polygon fill="#dc7d02" stroke="#dc7d02" points="582.817,-40.7004 578.856,-30.4751 579.257,-37.19 575.696,-33.6796 575.696,-33.6796 575.696,-33.6796 579.257,-37.19 572.537,-36.8841 582.817,-40.7004 582.817,-40.7004"/>
</g>
<!-- CurrentAlerts -->
<g id="node13" class="node"><title>CurrentAlerts</title>
<ellipse fill="none" stroke="black" cx="754.807" cy="-162" rx="59.2173" ry="18"/>
<text text-anchor="middle" x="754.807" y="-158.3" font-family="Times,serif" font-size="14.00">CurrentAlerts</text>
</g>
<!-- ReportsReporttag -->
<g id="node15" class="node"><title>ReportsReporttag</title>
<ellipse fill="none" stroke="black" cx="942.807" cy="-162" rx="72.192" ry="18"/>
<text text-anchor="middle" x="942.807" y="-158.3" font-family="Times,serif" font-size="14.00">ReportsReporttag</text>
</g>
<!-- ActiveRecord::Base -->
<g id="node18" class="node"><title>ActiveRecord::Base</title>
<ellipse fill="none" stroke="black" cx="493.807" cy="-255" rx="81.3646" ry="18"/>
<text text-anchor="middle" x="493.807" y="-251.3" font-family="Times,serif" font-size="14.00">ActiveRecord::Base</text>
</g>
<!-- ActiveRecord::Base&#45;&gt;Service -->
<g id="edge6" class="edge"><title>ActiveRecord::Base&#45;&gt;Service</title>
<path fill="none" stroke="black" d="M498.855,-236.794C504.467,-214.766 511.543,-175.662 501.807,-144 497.557,-130.178 488.34,-116.727 480.296,-106.834"/>
</g>
<!-- ActiveRecord::Base&#45;&gt;User -->
<g id="edge8" class="edge"><title>ActiveRecord::Base&#45;&gt;User</title>
<path fill="none" stroke="black" d="M462.563,-238.37C445.346,-230.424 423.354,-221.341 402.807,-216 265.574,-180.326 222.393,-218.079 85.807,-180 80.3594,-178.481 74.7033,-176.252 69.5009,-173.904"/>
</g>
<!-- ActiveRecord::Base&#45;&gt;ServicesServicetag -->
<g id="edge10" class="edge"><title>ActiveRecord::Base&#45;&gt;ServicesServicetag</title>
<path fill="none" stroke="black" d="M460.61,-238.537C443.587,-231.02 422.369,-222.278 402.807,-216 345.411,-197.58 278.057,-182.885 230.939,-173.684"/>
</g>
<!-- ActiveRecord::Base&#45;&gt;Host -->
<g id="edge18" class="edge"><title>ActiveRecord::Base&#45;&gt;Host</title>
<path fill="none" stroke="black" d="M488.54,-236.884C483.503,-220.511 475.953,-195.975 470.955,-179.732"/>
</g>
<!-- ActiveRecord::Base&#45;&gt;HostsHosttag -->
<g id="edge20" class="edge"><title>ActiveRecord::Base&#45;&gt;HostsHosttag</title>
<path fill="none" stroke="black" d="M470.387,-237.731C446.395,-221.065 409.341,-195.325 385.586,-178.823"/>
</g>
<!-- ActiveRecord::Base&#45;&gt;Servicetag -->
<g id="edge22" class="edge"><title>ActiveRecord::Base&#45;&gt;Servicetag</title>
<path fill="none" stroke="black" d="M462.607,-238.197C445.403,-230.201 423.409,-221.125 402.807,-216 318.346,-194.99 71.4535,-244.309 12.807,-180 -39.0759,-123.107 81.6898,-58.9563 141.149,-32.0107"/>
</g>
<!-- ActiveRecord::Base&#45;&gt;Reporttag -->
<g id="edge26" class="edge"><title>ActiveRecord::Base&#45;&gt;Reporttag</title>
<path fill="none" stroke="black" d="M518.479,-237.731C544.218,-220.758 584.228,-194.375 609.178,-177.922"/>
</g>
<!-- ActiveRecord::Base&#45;&gt;Report -->
<g id="edge30" class="edge"><title>ActiveRecord::Base&#45;&gt;Report</title>
<path fill="none" stroke="black" d="M568.572,-247.831C655.645,-238.915 791.582,-219.029 822.807,-180 867.716,-123.868 731.15,-101.471 665.242,-94.0918"/>
</g>
<!-- ActiveRecord::Base&#45;&gt;Hosttag -->
<g id="edge34" class="edge"><title>ActiveRecord::Base&#45;&gt;Hosttag</title>
<path fill="none" stroke="black" d="M458.603,-238.614C441.82,-231.456 421.394,-222.997 402.807,-216 355.849,-198.322 325.088,-220.745 295.807,-180 279.78,-157.697 297.552,-126.054 311.482,-107.123"/>
</g>
<!-- ActiveRecord::Base&#45;&gt;CurrentAlerts -->
<g id="edge36" class="edge"><title>ActiveRecord::Base&#45;&gt;CurrentAlerts</title>
<path fill="none" stroke="black" d="M535.452,-239.48C585.68,-221.968 669.353,-192.794 717.538,-175.994"/>
</g>
<!-- ActiveRecord::Base&#45;&gt;Alert -->
<g id="edge38" class="edge"><title>ActiveRecord::Base&#45;&gt;Alert</title>
<path fill="none" stroke="black" d="M500.014,-236.767C505.298,-221.839 512.942,-199.619 518.807,-180 534.362,-127.968 549.721,-65.5297 556.784,-36.0305"/>
</g>
<!-- ActiveRecord::Base&#45;&gt;ReportsReporttag -->
<g id="edge40" class="edge"><title>ActiveRecord::Base&#45;&gt;ReportsReporttag</title>
<path fill="none" stroke="black" d="M551.587,-242.29C638.866,-224.6 803.166,-191.301 888.407,-174.025"/>
</g>
<!-- Object -->
<g id="node22" class="node"><title>Object</title>
<ellipse fill="none" stroke="black" cx="1070.81" cy="-255" rx="34.1708" ry="18"/>
<text text-anchor="middle" x="1070.81" y="-251.3" font-family="Times,serif" font-size="14.00">Object</text>
</g>
<!-- Object&#45;&gt;AlertFilter -->
<g id="edge12" class="edge"><title>Object&#45;&gt;AlertFilter</title>
<path fill="none" stroke="black" d="M1070.81,-236.884C1070.81,-220.614 1070.81,-196.284 1070.81,-180.04"/>
</g>
</g>
</svg>
